<svg xmlns="http://www.w3.org/2000/svg" xmlns:xlink="http://www.w3.org/1999/xlink" id="processonSvg1000" viewBox="283.0 645.0 540.0 485.0" width="540.0" height="485.0"><defs id="ProcessOnDefs1001"/><g id="ProcessOnG1002"><path id="ProcessOnPath1003" d="M283.0 645.0H823.0V1130.0H283.0V645.0Z" fill="#ffffff"/><g id="ProcessOnG1004"><g id="ProcessOnG1005" transform="matrix(1.0,0.0,0.0,1.0,303.0,801.9999999999999)" opacity="1.0"><path id="ProcessOnPath1006" d="M0.0 4.0Q0.0 0.0 4.0 0.0L496.0 0.0Q500.0 0.0 500.0 4.0L500.0 84.00000000000023Q500.0 88.00000000000023 496.0 88.00000000000023L4.0 88.00000000000023Q0.0 88.00000000000023 0.0 84.00000000000023Z" stroke="#99ffff" stroke-width="2.0" stroke-dasharray="none" opacity="1.0" fill="#99ffff"/></g><g id="ProcessOnG1007" transform="matrix(1.0,0.0,0.0,1.0,467.83531409168086,837.0)" opacity="1.0"><path id="ProcessOnPath1008" d="M0.0 0.0L183.91171477079797 0.0L183.91171477079797 23.426229508196798L0.0 23.426229508196798Z" stroke="none" stroke-width="0.0" stroke-dasharray="none" opacity="1.0" fill="none"/><g id="ProcessOnG1009" transform="matrix(1.0,0.0,0.0,1.0,0.0,-0.7868852459016011)"><text id="ProcessOnText1010" fill="#000000" font-size="20" x="90.95585738539899" y="20.5" font-family="微软雅黑" font-weight="bold" font-style="normal" text-decoration="none" family="微软雅黑" text-anchor="middle" size="20">passport 统一登录</text></g></g><g id="ProcessOnG1011" transform="matrix(1.0,0.0,0.0,1.0,303.0,1024.0)" opacity="1.0"><path id="ProcessOnPath1012" d="M0.0 4.0Q0.0 0.0 4.0 0.0L496.0 0.0Q500.0 0.0 500.0 4.0L500.0 82.0Q500.0 86.0 496.0 86.0L4.0 86.0Q0.0 86.0 0.0 82.0Z" stroke="#66b2ff" stroke-width="2.0" stroke-dasharray="none" opacity="1.0" fill="#66b2ff"/></g><g id="ProcessOnG1013" transform="matrix(1.0,0.0,0.0,1.0,470.6553480475384,1052.9016393442623)" opacity="1.0"><path id="ProcessOnPath1014" d="M0.0 0.0L179.12054329371813 0.0L179.12054329371813 28.196721311475358L0.0 28.196721311475358Z" stroke="none" stroke-width="0.0" stroke-dasharray="none" opacity="1.0" fill="none"/><g id="ProcessOnG1015" transform="matrix(1.0,0.0,0.0,1.0,0.0,1.5983606557376788)"><text id="ProcessOnText1016" fill="#000000" font-size="20" x="88.56027164685906" y="20.5" font-family="微软雅黑" font-weight="bold" font-style="normal" text-decoration="none" family="微软雅黑" text-anchor="middle" size="20">Lumen</text></g></g><g id="ProcessOnG1017" transform="matrix(1.0,0.0,0.0,1.0,303.0,912.0)" opacity="1.0"><path id="ProcessOnPath1018" d="M0.0 4.0Q0.0 0.0 4.0 0.0L496.0 0.0Q500.0 0.0 500.0 4.0L500.0 91.0Q500.0 95.0 496.0 95.0L4.0 95.0Q0.0 95.0 0.0 91.0Z" stroke="#99ccff" stroke-width="2.0" stroke-dasharray="none" opacity="1.0" fill="#99ccff"/></g><g id="ProcessOnG1019" transform="matrix(1.0,0.0,0.0,1.0,465.69779286927,942.5737704918033)" opacity="1.0"><path id="ProcessOnPath1020" d="M0.0 0.0L174.60441426145997 0.0L174.60441426145997 28.852459016393368L0.0 28.852459016393368Z" stroke="none" stroke-width="0.0" stroke-dasharray="none" opacity="1.0" fill="none"/><g id="ProcessOnG1021" transform="matrix(1.0,0.0,0.0,1.0,0.0,1.926229508196684)"><text id="ProcessOnText1022" fill="#000000" font-size="20" x="86.30220713072998" y="20.5" font-family="微软雅黑" font-weight="bold" font-style="normal" text-decoration="none" family="微软雅黑" text-anchor="middle" size="20">api &amp; 权限控制</text></g></g><g id="ProcessOnG1023" transform="matrix(1.0,0.0,0.0,1.0,303.0,665.0)" opacity="1.0"><path id="ProcessOnPath1024" d="M0.0 4.0Q0.0 0.0 4.0 0.0L496.0 0.0Q500.0 0.0 500.0 4.0L500.0 107.0Q500.0 111.0 496.0 111.0L4.0 111.0Q0.0 111.0 0.0 107.0Z" stroke="#99ff99" stroke-width="2.0" stroke-dasharray="none" opacity="1.0" fill="#99ff99"/></g><g id="ProcessOnG1025" transform="matrix(1.0,0.0,0.0,1.0,326.7691001697793,709.7377049180328)" opacity="1.0"><path id="ProcessOnPath1026" d="M0.0 4.0Q0.0 0.0 4.0 0.0L80.88964346349745 0.0Q84.88964346349745 0.0 84.88964346349745 4.0L84.88964346349745 46.49180327868852Q84.88964346349745 50.49180327868852 80.88964346349745 50.49180327868852L4.0 50.49180327868852Q0.0 50.49180327868852 0.0 46.49180327868852Z" stroke="#ccffe6" stroke-width="2.0" stroke-dasharray="none" opacity="1.0" fill="#ccffcc"/><g id="ProcessOnG1027" transform="matrix(1.0,0.0,0.0,1.0,10.0,15.870901639344261)"><text id="ProcessOnText1028" fill="#000000" font-size="15" x="31.444821731748725" y="15.375" font-family="微软雅黑" font-weight="normal" font-style="normal" text-decoration="none" family="微软雅黑" text-anchor="middle" size="15">edu</text></g></g><g id="ProcessOnG1029" transform="matrix(1.0,0.0,0.0,1.0,449.0101867572156,709.7377049180329)" opacity="1.0"><path id="ProcessOnPath1030" d="M0.0 4.0Q0.0 0.0 4.0 0.0L80.88964346349745 0.0Q84.88964346349745 0.0 84.88964346349745 4.0L84.88964346349745 46.49180327868852Q84.88964346349745 50.49180327868852 80.88964346349745 50.49180327868852L4.0 50.49180327868852Q0.0 50.49180327868852 0.0 46.49180327868852Z" stroke="#ccffe6" stroke-width="2.0" stroke-dasharray="none" opacity="1.0" fill="#ccffcc"/><g id="ProcessOnG1031" transform="matrix(1.0,0.0,0.0,1.0,10.0,15.870901639344261)"><text id="ProcessOnText1032" fill="#000000" font-size="15" x="31.444821731748725" y="15.375" font-family="微软雅黑" font-weight="normal" font-style="normal" text-decoration="none" family="微软雅黑" text-anchor="middle" size="15">library</text></g></g><g id="ProcessOnG1033" transform="matrix(1.0,0.0,0.0,1.0,581.8624787775893,709.7377049180329)" opacity="1.0"><path id="ProcessOnPath1034" d="M0.0 4.0Q0.0 0.0 4.0 0.0L80.88964346349745 0.0Q84.88964346349745 0.0 84.88964346349745 4.0L84.88964346349745 46.49180327868852Q84.88964346349745 50.49180327868852 80.88964346349745 50.49180327868852L4.0 50.49180327868852Q0.0 50.49180327868852 0.0 46.49180327868852Z" stroke="#ccffe6" stroke-width="2.0" stroke-dasharray="none" opacity="1.0" fill="#ccffcc"/><g id="ProcessOnG1035" transform="matrix(1.0,0.0,0.0,1.0,10.0,15.870901639344261)"><text id="ProcessOnText1036" fill="#000000" font-size="15" x="31.444821731748725" y="15.375" font-family="微软雅黑" font-weight="normal" font-style="normal" text-decoration="none" family="微软雅黑" text-anchor="middle" size="15">repair</text></g></g><g id="ProcessOnG1037" transform="matrix(1.0,0.0,0.0,1.0,707.0747028862479,709.7377049180329)" opacity="1.0"><path id="ProcessOnPath1038" d="M0.0 4.0Q0.0 0.0 4.0 0.0L80.88964346349745 0.0Q84.88964346349745 0.0 84.88964346349745 4.0L84.88964346349745 46.49180327868852Q84.88964346349745 50.49180327868852 80.88964346349745 50.49180327868852L4.0 50.49180327868852Q0.0 50.49180327868852 0.0 46.49180327868852Z" stroke="#ccffe6" stroke-width="2.0" stroke-dasharray="none" opacity="1.0" fill="#ccffcc"/><g id="ProcessOnG1039" transform="matrix(1.0,0.0,0.0,1.0,10.0,15.870901639344261)"><text id="ProcessOnText1040" fill="#000000" font-size="15" x="31.444821731748725" y="15.375" font-family="微软雅黑" font-weight="normal" font-style="normal" text-decoration="none" family="微软雅黑" text-anchor="middle" size="15">ecard</text></g></g><g id="ProcessOnG1041" transform="matrix(1.0,0.0,0.0,1.0,491.87945670628187,670.0)" opacity="1.0"><path id="ProcessOnPath1042" d="M0.0 0.0L135.82342954159594 0.0L135.82342954159594 36.393442622950815L0.0 36.393442622950815Z" stroke="none" stroke-width="0.0" stroke-dasharray="none" opacity="1.0" fill="none"/><g id="ProcessOnG1043" transform="matrix(1.0,0.0,0.0,1.0,0.0,5.696721311475407)"><text id="ProcessOnText1044" fill="#000000" font-size="20" x="66.91171477079797" y="20.5" font-family="微软雅黑" font-weight="bold" font-style="normal" text-decoration="none" family="微软雅黑" text-anchor="middle" size="20">各级系统</text></g></g></g></g></svg>