<svg xmlns="http://www.w3.org/2000/svg" xmlns:xlink="http://www.w3.org/1999/xlink" id="processonSvg1000" viewBox="72.0 758.7377049180327 1079.0 491.2622950819673" width="1079.0" height="491.2622950819673"><defs id="ProcessOnDefs1001"><marker id="ProcessOnMarker1031" markerUnits="userSpaceOnUse" orient="auto" markerWidth="16.23606797749979" markerHeight="10.550836550532098" viewBox="-1.0 -1.3763819204711736 16.23606797749979 10.550836550532098" refX="-1.0" refY="3.8990363547948754"><path id="ProcessOnPath1032" d="M12.0 3.8990363547948754L0.0 7.798072709589751V0.0Z" stroke="#323232" stroke-width="2.0" fill="#323232" transform="matrix(1.0,0.0,0.0,1.0,0.0,0.0)"/></marker><marker id="ProcessOnMarker1058" markerUnits="userSpaceOnUse" orient="auto" markerWidth="16.23606797749979" markerHeight="10.550836550532098" viewBox="-1.0 -1.3763819204711736 16.23606797749979 10.550836550532098" refX="-1.0" refY="3.8990363547948754"><path id="ProcessOnPath1059" d="M12.0 3.8990363547948754L0.0 7.798072709589751V0.0Z" stroke="#323232" stroke-width="2.0" fill="#323232" transform="matrix(1.0,0.0,0.0,1.0,0.0,0.0)"/></marker><marker id="ProcessOnMarker1062" markerUnits="userSpaceOnUse" orient="auto" markerWidth="16.23606797749979" markerHeight="10.550836550532098" viewBox="-1.0 -1.3763819204711736 16.23606797749979 10.550836550532098" refX="-1.0" refY="3.8990363547948754"><path id="ProcessOnPath1063" d="M12.0 3.8990363547948754L0.0 7.798072709589751V0.0Z" stroke="#323232" stroke-width="2.0" fill="#323232" transform="matrix(1.0,0.0,0.0,1.0,0.0,0.0)"/></marker><marker id="ProcessOnMarker1066" markerUnits="userSpaceOnUse" orient="auto" markerWidth="16.23606797749979" markerHeight="10.550836550532098" viewBox="-1.0 -1.3763819204711736 16.23606797749979 10.550836550532098" refX="-1.0" refY="3.8990363547948754"><path id="ProcessOnPath1067" d="M12.0 3.8990363547948754L0.0 7.798072709589751V0.0Z" stroke="#323232" stroke-width="2.0" fill="#323232" transform="matrix(1.0,0.0,0.0,1.0,0.0,0.0)"/></marker><marker id="ProcessOnMarker1070" markerUnits="userSpaceOnUse" orient="auto" markerWidth="16.23606797749979" markerHeight="10.550836550532098" viewBox="-1.0 -1.3763819204711736 16.23606797749979 10.550836550532098" refX="-1.0" refY="3.8990363547948754"><path id="ProcessOnPath1071" d="M12.0 3.8990363547948754L0.0 7.798072709589751V0.0Z" stroke="#323232" stroke-width="2.0" fill="#323232" transform="matrix(1.0,0.0,0.0,1.0,0.0,0.0)"/></marker><marker id="ProcessOnMarker1084" markerUnits="userSpaceOnUse" orient="auto" markerWidth="16.23606797749979" markerHeight="10.550836550532098" viewBox="-1.0 -1.3763819204711736 16.23606797749979 10.550836550532098" refX="-1.0" refY="3.8990363547948754"><path id="ProcessOnPath1085" d="M12.0 3.8990363547948754L0.0 7.798072709589751V0.0Z" stroke="#323232" stroke-width="2.0" fill="#323232" transform="matrix(1.0,0.0,0.0,1.0,0.0,0.0)"/></marker><marker id="ProcessOnMarker1093" markerUnits="userSpaceOnUse" orient="auto" markerWidth="16.23606797749979" markerHeight="10.550836550532098" viewBox="-1.0 -1.3763819204711736 16.23606797749979 10.550836550532098" refX="-1.0" refY="3.8990363547948754"><path id="ProcessOnPath1094" d="M12.0 3.8990363547948754L0.0 7.798072709589751V0.0Z" stroke="#323232" stroke-width="2.0" fill="#323232" transform="matrix(1.0,0.0,0.0,1.0,0.0,0.0)"/></marker><marker id="ProcessOnMarker1097" markerUnits="userSpaceOnUse" orient="auto" markerWidth="16.23606797749979" markerHeight="10.550836550532098" viewBox="-1.0 -1.3763819204711736 16.23606797749979 10.550836550532098" refX="-1.0" refY="3.8990363547948754"><path id="ProcessOnPath1098" d="M12.0 3.8990363547948754L0.0 7.798072709589751V0.0Z" stroke="#323232" stroke-width="2.0" fill="#323232" transform="matrix(1.0,0.0,0.0,1.0,0.0,0.0)"/></marker><marker id="ProcessOnMarker1106" markerUnits="userSpaceOnUse" orient="auto" markerWidth="16.23606797749979" markerHeight="10.550836550532098" viewBox="-1.0 -1.3763819204711736 16.23606797749979 10.550836550532098" refX="-1.0" refY="3.8990363547948754"><path id="ProcessOnPath1107" d="M12.0 3.8990363547948754L0.0 7.798072709589751V0.0Z" stroke="#323232" stroke-width="2.0" fill="#323232" transform="matrix(1.0,0.0,0.0,1.0,0.0,0.0)"/></marker><marker id="ProcessOnMarker1116" markerUnits="userSpaceOnUse" orient="auto" markerWidth="16.23606797749979" markerHeight="10.550836550532098" viewBox="-1.0 -1.3763819204711736 16.23606797749979 10.550836550532098" refX="-1.0" refY="3.8990363547948754"><path id="ProcessOnPath1117" d="M12.0 3.8990363547948754L0.0 7.798072709589751V0.0Z" stroke="#323232" stroke-width="2.0" fill="#323232" transform="matrix(1.0,0.0,0.0,1.0,0.0,0.0)"/></marker><marker id="ProcessOnMarker1120" markerUnits="userSpaceOnUse" orient="auto" markerWidth="16.23606797749979" markerHeight="10.550836550532098" viewBox="-1.0 -1.3763819204711736 16.23606797749979 10.550836550532098" refX="-1.0" refY="3.8990363547948754"><path id="ProcessOnPath1121" d="M12.0 3.8990363547948754L0.0 7.798072709589751V0.0Z" stroke="#323232" stroke-width="2.0" fill="#323232" transform="matrix(1.0,0.0,0.0,1.0,0.0,0.0)"/></marker></defs><g id="ProcessOnG1002"><path id="ProcessOnPath1003" d="M72.0 758.7377049180327H1151.0V1250.0H72.0V758.7377049180327Z" fill="#ffffff"/><g id="ProcessOnG1004"><g id="ProcessOnG1005" transform="matrix(1.0,0.0,0.0,1.0,597.0000000000001,966.1434426229507)" opacity="1.0"><path id="ProcessOnPath1006" d="M0.0 4.0Q0.0 0.0 4.0 0.0L157.5 0.0Q161.5 0.0 161.5 4.0L161.5 71.71311475409857Q161.5 75.71311475409857 157.5 75.71311475409857L4.0 75.71311475409857Q0.0 75.71311475409857 0.0 71.71311475409857Z" stroke="#99ffff" stroke-width="2.0" stroke-dasharray="none" opacity="1.0" fill="#99ffff"/></g><g id="ProcessOnG1007" transform="matrix(1.0,0.0,0.0,1.0,585.7941426146011,992.2868852459017)" opacity="1.0"><path id="ProcessOnPath1008" d="M0.0 0.0L183.91171477079797 0.0L183.91171477079797 23.426229508196798L0.0 23.426229508196798Z" stroke="none" stroke-width="0.0" stroke-dasharray="none" opacity="1.0" fill="none"/><g id="ProcessOnG1009" transform="matrix(1.0,0.0,0.0,1.0,0.0,-0.7868852459016011)"><text id="ProcessOnText1010" fill="#000000" font-size="20" x="90.95585738539899" y="20.5" font-family="微软雅黑" font-weight="bold" font-style="normal" text-decoration="none" family="微软雅黑" text-anchor="middle" size="20">统一登录</text></g></g><g id="ProcessOnG1011" transform="matrix(1.0,0.0,0.0,1.0,305.9550084889643,954.0)" opacity="1.0"><path id="ProcessOnPath1012" d="M0.0 4.0Q0.0 0.0 4.0 0.0L223.94482173174873 0.0Q227.94482173174873 0.0 227.94482173174873 4.0L227.94482173174873 96.0Q227.94482173174873 100.0 223.94482173174873 100.0L4.0 100.0Q0.0 100.0 0.0 96.0Z" stroke="#99ccff" stroke-width="2.0" stroke-dasharray="none" opacity="1.0" fill="#99ccff"/></g><g id="ProcessOnG1013" transform="matrix(1.0,0.0,0.0,1.0,332.6252122241087,993.2868852459017)" opacity="1.0"><path id="ProcessOnPath1014" d="M0.0 0.0L174.60441426145997 0.0L174.60441426145997 28.852459016393368L0.0 28.852459016393368Z" stroke="none" stroke-width="0.0" stroke-dasharray="none" opacity="1.0" fill="none"/><g id="ProcessOnG1015" transform="matrix(1.0,0.0,0.0,1.0,0.0,1.926229508196684)"><text id="ProcessOnText1016" fill="#000000" font-size="20" x="86.30220713072998" y="20.5" font-family="微软雅黑" font-weight="bold" font-style="normal" text-decoration="none" family="微软雅黑" text-anchor="middle" size="20">api &amp; 权限控制</text></g></g><g id="ProcessOnG1017" transform="matrix(1.0,0.0,0.0,1.0,801.0000000000001,961.3934426229508)" opacity="1.0"><path id="ProcessOnPath1018" d="M0.0 4.0Q0.0 0.0 4.0 0.0L152.9999999999999 0.0Q156.9999999999999 0.0 156.9999999999999 4.0L156.9999999999999 81.21311475409834Q156.9999999999999 85.21311475409834 152.9999999999999 85.21311475409834L4.0 85.21311475409834Q0.0 85.21311475409834 0.0 81.21311475409834Z" stroke="#99ff99" stroke-width="2.0" stroke-dasharray="none" opacity="1.0" fill="#99ff99"/></g><g id="ProcessOnG1019" transform="matrix(1.0,0.0,0.0,1.0,811.588285229202,985.8032786885246)" opacity="1.0"><path id="ProcessOnPath1020" d="M0.0 0.0L135.82342954159594 0.0L135.82342954159594 36.393442622950815L0.0 36.393442622950815Z" stroke="none" stroke-width="0.0" stroke-dasharray="none" opacity="1.0" fill="none"/><g id="ProcessOnG1021" transform="matrix(1.0,0.0,0.0,1.0,0.0,5.696721311475407)"><text id="ProcessOnText1022" fill="#000000" font-size="20" x="66.91171477079797" y="20.5" font-family="微软雅黑" font-weight="bold" font-style="normal" text-decoration="none" family="微软雅黑" text-anchor="middle" size="20">各级系统</text></g></g><g id="ProcessOnG1023" transform="matrix(1.0,0.0,0.0,1.0,92.0,954.0)" opacity="1.0"><path id="ProcessOnPath1024" d="M0.0 4.0Q0.0 0.0 4.0 0.0L118.0 0.0Q122.0 0.0 122.0 4.0L122.0 96.0Q122.0 100.0 118.0 100.0L4.0 100.0Q0.0 100.0 0.0 96.0Z" stroke="#99ccff" stroke-width="2.0" stroke-dasharray="none" opacity="1.0" fill="#ff6666"/></g><g id="ProcessOnG1025" transform="matrix(1.0,0.0,0.0,1.0,109.09889643463504,993.2868852459017)" opacity="1.0"><path id="ProcessOnPath1026" d="M0.0 0.0L87.80220713072993 0.0L87.80220713072993 21.426229508196684L0.0 21.426229508196684Z" stroke="none" stroke-width="0.0" stroke-dasharray="none" opacity="1.0" fill="none"/><g id="ProcessOnG1027" transform="matrix(1.0,0.0,0.0,1.0,0.0,-1.786885245901658)"><text id="ProcessOnText1028" fill="#000000" font-size="20" x="42.90110356536496" y="20.5" font-family="微软雅黑" font-weight="bold" font-style="normal" text-decoration="none" family="微软雅黑" text-anchor="middle" size="20">请求</text></g></g><g id="ProcessOnG1029"><path id="ProcessOnPath1030" d="M214.0 1004.0L259.97750424448213 1004.0L259.97750424448213 1004.0L290.71894051146455 1004.0" stroke="#323232" stroke-width="2.0" stroke-dasharray="none" fill="none" marker-end="url(#ProcessOnMarker1031)"/></g><g id="ProcessOnG1033" transform="matrix(1.0,0.0,0.0,1.0,309.9550084889643,1092.7377049180327)" opacity="1.0"><path id="ProcessOnPath1034" d="M0.0 4.0Q0.0 0.0 4.0 0.0L45.38370118845506 0.0Q49.38370118845506 0.0 49.38370118845506 4.0L49.38370118845506 133.2622950819673Q49.38370118845506 137.2622950819673 45.38370118845506 137.2622950819673L4.0 137.2622950819673Q0.0 137.2622950819673 0.0 133.2622950819673Z" stroke="#ccffe6" stroke-width="2.0" stroke-dasharray="none" opacity="1.0" fill="#66b2ff"/><g id="ProcessOnG1035" transform="matrix(1.0,0.0,0.0,1.0,10.0,31.131147540983648)"><text id="ProcessOnText1036" fill="#000000" font-size="15" x="13.691850594227532" y="15.375" font-family="微软雅黑" font-weight="bold" font-style="normal" text-decoration="none" family="微软雅黑" text-anchor="middle" size="15">权</text><text id="ProcessOnText1037" fill="#000000" font-size="15" x="13.691850594227532" y="34.125" font-family="微软雅黑" font-weight="bold" font-style="normal" text-decoration="none" family="微软雅黑" text-anchor="middle" size="15">限</text><text id="ProcessOnText1038" fill="#000000" font-size="15" x="13.691850594227532" y="52.875" font-family="微软雅黑" font-weight="bold" font-style="normal" text-decoration="none" family="微软雅黑" text-anchor="middle" size="15">检</text><text id="ProcessOnText1039" fill="#000000" font-size="15" x="13.691850594227532" y="71.625" font-family="微软雅黑" font-weight="bold" font-style="normal" text-decoration="none" family="微软雅黑" text-anchor="middle" size="15">查</text></g></g><g id="ProcessOnG1040" transform="matrix(1.0,0.0,0.0,1.0,395.23556876061116,1092.7377049180327)" opacity="1.0"><path id="ProcessOnPath1041" d="M0.0 4.0Q0.0 0.0 4.0 0.0L45.38370118845506 0.0Q49.38370118845506 0.0 49.38370118845506 4.0L49.38370118845506 133.2622950819673Q49.38370118845506 137.2622950819673 45.38370118845506 137.2622950819673L4.0 137.2622950819673Q0.0 137.2622950819673 0.0 133.2622950819673Z" stroke="#ccffe6" stroke-width="2.0" stroke-dasharray="none" opacity="1.0" fill="#66b2ff"/><g id="ProcessOnG1042" transform="matrix(1.0,0.0,0.0,1.0,10.0,31.131147540983648)"><text id="ProcessOnText1043" fill="#000000" font-size="15" x="13.691850594227532" y="15.375" font-family="微软雅黑" font-weight="bold" font-style="normal" text-decoration="none" family="微软雅黑" text-anchor="middle" size="15">频</text><text id="ProcessOnText1044" fill="#000000" font-size="15" x="13.691850594227532" y="34.125" font-family="微软雅黑" font-weight="bold" font-style="normal" text-decoration="none" family="微软雅黑" text-anchor="middle" size="15">率</text><text id="ProcessOnText1045" fill="#000000" font-size="15" x="13.691850594227532" y="52.875" font-family="微软雅黑" font-weight="bold" font-style="normal" text-decoration="none" family="微软雅黑" text-anchor="middle" size="15">检</text><text id="ProcessOnText1046" fill="#000000" font-size="15" x="13.691850594227532" y="71.625" font-family="微软雅黑" font-weight="bold" font-style="normal" text-decoration="none" family="微软雅黑" text-anchor="middle" size="15">查</text></g></g><g id="ProcessOnG1047" transform="matrix(1.0,0.0,0.0,1.0,480.61629881154494,1092.7377049180327)" opacity="1.0"><path id="ProcessOnPath1048" d="M0.0 4.0Q0.0 0.0 4.0 0.0L45.38370118845506 0.0Q49.38370118845506 0.0 49.38370118845506 4.0L49.38370118845506 133.2622950819673Q49.38370118845506 137.2622950819673 45.38370118845506 137.2622950819673L4.0 137.2622950819673Q0.0 137.2622950819673 0.0 133.2622950819673Z" stroke="#ccffe6" stroke-width="2.0" stroke-dasharray="none" opacity="1.0" fill="#66b2ff"/><g id="ProcessOnG1049" transform="matrix(1.0,0.0,0.0,1.0,10.0,12.381147540983648)"><text id="ProcessOnText1050" fill="#000000" font-size="15" x="13.691850594227532" y="15.375" font-family="微软雅黑" font-weight="bold" font-style="normal" text-decoration="none" family="微软雅黑" text-anchor="middle" size="15">剩</text><text id="ProcessOnText1051" fill="#000000" font-size="15" x="13.691850594227532" y="34.125" font-family="微软雅黑" font-weight="bold" font-style="normal" text-decoration="none" family="微软雅黑" text-anchor="middle" size="15">余</text><text id="ProcessOnText1052" fill="#000000" font-size="15" x="13.691850594227532" y="52.875" font-family="微软雅黑" font-weight="bold" font-style="normal" text-decoration="none" family="微软雅黑" text-anchor="middle" size="15">次</text><text id="ProcessOnText1053" fill="#000000" font-size="15" x="13.691850594227532" y="71.625" font-family="微软雅黑" font-weight="bold" font-style="normal" text-decoration="none" family="微软雅黑" text-anchor="middle" size="15">数</text><text id="ProcessOnText1054" fill="#000000" font-size="15" x="13.691850594227532" y="90.375" font-family="微软雅黑" font-weight="bold" font-style="normal" text-decoration="none" family="微软雅黑" text-anchor="middle" size="15">检</text><text id="ProcessOnText1055" fill="#000000" font-size="15" x="13.691850594227532" y="109.125" font-family="微软雅黑" font-weight="bold" font-style="normal" text-decoration="none" family="微软雅黑" text-anchor="middle" size="15">查</text></g></g><g id="ProcessOnG1056"><path id="ProcessOnPath1057" d="M334.6468590831919 1092.7377049180327L334.6468590831919 1073.3688524590164L334.0759046518082 1073.3688524590164L334.0759046518082 1069.2360679774997" stroke="#323232" stroke-width="2.0" stroke-dasharray="none" fill="none" marker-end="url(#ProcessOnMarker1058)"/></g><g id="ProcessOnG1060"><path id="ProcessOnPath1061" d="M419.92741935483866 1092.7377049180327L419.92741935483866 1073.3688524590164L419.92741935483866 1073.3688524590164L419.92741935483866 1069.2360679774997" stroke="#323232" stroke-width="2.0" stroke-dasharray="none" fill="none" marker-end="url(#ProcessOnMarker1062)"/></g><g id="ProcessOnG1064"><path id="ProcessOnPath1065" d="M505.3081494057725 1092.7377049180327L505.3081494057725 1073.3688524590164L505.8666242062262 1073.3688524590164L505.8666242062262 1069.2360679774997" stroke="#323232" stroke-width="2.0" stroke-dasharray="none" fill="none" marker-end="url(#ProcessOnMarker1066)"/></g><g id="ProcessOnG1068"><path id="ProcessOnPath1069" d="M533.899830220713 1004.0L565.4499151103566 1004.0L565.4499151103566 1004.0L581.7639320225003 1004.0" stroke="#323232" stroke-width="2.0" stroke-dasharray="none" fill="none" marker-end="url(#ProcessOnMarker1070)"/></g><g id="ProcessOnG1072" transform="matrix(1.0,0.0,0.0,1.0,387.4274193548387,778.7377049180327)" opacity="1.0"><path id="ProcessOnPath1073" d="M0.0 4.0Q0.0 0.0 4.0 0.0L60.999999999999886 0.0Q64.99999999999989 0.0 64.99999999999989 4.0L64.99999999999989 139.2622950819673Q64.99999999999989 143.2622950819673 60.999999999999886 143.2622950819673L4.0 143.2622950819673Q0.0 143.2622950819673 0.0 139.2622950819673Z" stroke="#ccffe6" stroke-width="2.0" stroke-dasharray="none" opacity="1.0" fill="#66b2ff"/><g id="ProcessOnG1074" transform="matrix(1.0,0.0,0.0,1.0,10.0,52.88114754098365)"><text id="ProcessOnText1075" fill="#000000" font-size="15" x="21.499999999999943" y="15.375" font-family="微软雅黑" font-weight="bold" font-style="normal" text-decoration="none" family="微软雅黑" text-anchor="middle" size="15">管理t</text><text id="ProcessOnText1076" fill="#000000" font-size="15" x="21.499999999999943" y="34.125" font-family="微软雅黑" font-weight="bold" font-style="normal" text-decoration="none" family="微软雅黑" text-anchor="middle" size="15">oken</text></g></g><g id="ProcessOnG1077" transform="matrix(1.0,0.0,0.0,1.0,648.7500000000001,783.7377049180327)" opacity="1.0"><path id="ProcessOnPath1078" d="M0.0 4.0Q0.0 0.0 4.0 0.0L54.0 0.0Q58.0 0.0 58.0 4.0L58.0 137.2622950819673Q58.0 141.2622950819673 54.0 141.2622950819673L4.0 141.2622950819673Q0.0 141.2622950819673 0.0 137.2622950819673Z" stroke="#ccffe6" stroke-width="2.0" stroke-dasharray="none" opacity="1.0" fill="#66b2ff"/><g id="ProcessOnG1079" transform="matrix(1.0,0.0,0.0,1.0,10.0,51.88114754098365)"><text id="ProcessOnText1080" fill="#000000" font-size="15" x="18.0" y="15.375" font-family="微软雅黑" font-weight="bold" font-style="normal" text-decoration="none" family="微软雅黑" text-anchor="middle" size="15">模拟</text><text id="ProcessOnText1081" fill="#000000" font-size="15" x="18.0" y="34.125" font-family="微软雅黑" font-weight="bold" font-style="normal" text-decoration="none" family="微软雅黑" text-anchor="middle" size="15">登录</text></g></g><g id="ProcessOnG1082"><path id="ProcessOnPath1083" d="M677.7500000000001 925.0L677.7500000000001 945.5717213114754L677.7500000000001 945.5717213114754L677.7500000000001 950.9073746454509" stroke="#323232" stroke-width="2.0" stroke-dasharray="none" fill="none" marker-end="url(#ProcessOnMarker1084)"/></g><g id="ProcessOnG1086" transform="matrix(1.0,0.0,0.0,1.0,636.2500000000002,1085.0)" opacity="1.0"><path id="ProcessOnPath1087" d="M0.0 4.0Q0.0 0.0 4.0 0.0L78.99999999999989 0.0Q82.99999999999989 0.0 82.99999999999989 4.0L82.99999999999989 136.0Q82.99999999999989 140.0 78.99999999999989 140.0L4.0 140.0Q0.0 140.0 0.0 136.0Z" stroke="#ccffe6" stroke-width="2.0" stroke-dasharray="none" opacity="1.0" fill="#66b2ff"/><g id="ProcessOnG1088" transform="matrix(1.0,0.0,0.0,1.0,10.0,51.25)"><text id="ProcessOnText1089" fill="#000000" font-size="15" x="30.499999999999943" y="15.375" font-family="微软雅黑" font-weight="bold" font-style="normal" text-decoration="none" family="微软雅黑" text-anchor="middle" size="15">session</text><text id="ProcessOnText1090" fill="#000000" font-size="15" x="30.499999999999943" y="34.125" font-family="微软雅黑" font-weight="bold" font-style="normal" text-decoration="none" family="微软雅黑" text-anchor="middle" size="15">管理</text></g></g><g id="ProcessOnG1091"><path id="ProcessOnPath1092" d="M677.7500000000002 1085.0L677.7500000000002 1063.4282786885246L677.7500000000001 1063.4282786885246L677.7500000000001 1057.092625354549" stroke="#323232" stroke-width="2.0" stroke-dasharray="none" fill="none" marker-end="url(#ProcessOnMarker1093)"/></g><g id="ProcessOnG1095"><path id="ProcessOnPath1096" d="M758.5000000000001 1004.0L779.7500000000001 1004.0L779.7500000000001 1004.0L785.7639320225003 1004.0" stroke="#323232" stroke-width="2.0" stroke-dasharray="none" fill="none" marker-end="url(#ProcessOnMarker1097)"/></g><g id="ProcessOnG1099" transform="matrix(1.0,0.0,0.0,1.0,850.5,779.7377049180327)" opacity="1.0"><path id="ProcessOnPath1100" d="M0.0 4.0Q0.0 0.0 4.0 0.0L54.0 0.0Q58.0 0.0 58.0 4.0L58.0 137.2622950819673Q58.0 141.2622950819673 54.0 141.2622950819673L4.0 141.2622950819673Q0.0 141.2622950819673 0.0 137.2622950819673Z" stroke="#ccffe6" stroke-width="2.0" stroke-dasharray="none" opacity="1.0" fill="#66b2ff"/><g id="ProcessOnG1101" transform="matrix(1.0,0.0,0.0,1.0,10.0,51.88114754098365)"><text id="ProcessOnText1102" fill="#000000" font-size="15" x="18.0" y="15.375" font-family="微软雅黑" font-weight="bold" font-style="normal" text-decoration="none" family="微软雅黑" text-anchor="middle" size="15">数据</text><text id="ProcessOnText1103" fill="#000000" font-size="15" x="18.0" y="34.125" font-family="微软雅黑" font-weight="bold" font-style="normal" text-decoration="none" family="微软雅黑" text-anchor="middle" size="15">爬取</text></g></g><g id="ProcessOnG1104"><path id="ProcessOnPath1105" d="M879.5 921.0L879.5 941.1967213114754L879.5 941.1967213114754L879.5 946.157374645451" stroke="#323232" stroke-width="2.0" stroke-dasharray="none" fill="none" marker-end="url(#ProcessOnMarker1106)"/></g><g id="ProcessOnG1108" transform="matrix(1.0,0.0,0.0,1.0,1009.0,954.0)" opacity="1.0"><path id="ProcessOnPath1109" d="M0.0 4.0Q0.0 0.0 4.0 0.0L118.0 0.0Q122.0 0.0 122.0 4.0L122.0 96.0Q122.0 100.0 118.0 100.0L4.0 100.0Q0.0 100.0 0.0 96.0Z" stroke="#99ccff" stroke-width="2.0" stroke-dasharray="none" opacity="1.0" fill="#ff6666"/></g><g id="ProcessOnG1110" transform="matrix(1.0,0.0,0.0,1.0,1026.098896434635,993.2868852459017)" opacity="1.0"><path id="ProcessOnPath1111" d="M0.0 0.0L87.80220713072993 0.0L87.80220713072993 21.426229508196684L0.0 21.426229508196684Z" stroke="none" stroke-width="0.0" stroke-dasharray="none" opacity="1.0" fill="none"/><g id="ProcessOnG1112" transform="matrix(1.0,0.0,0.0,1.0,0.0,-1.786885245901658)"><text id="ProcessOnText1113" fill="#000000" font-size="20" x="42.90110356536496" y="20.5" font-family="微软雅黑" font-weight="bold" font-style="normal" text-decoration="none" family="微软雅黑" text-anchor="middle" size="20">返回</text></g></g><g id="ProcessOnG1114"><path id="ProcessOnPath1115" d="M958.0 1004.0L983.5 1004.0L983.5 1004.0L993.7639320225002 1004.0" stroke="#323232" stroke-width="2.0" stroke-dasharray="none" fill="none" marker-end="url(#ProcessOnMarker1116)"/></g><g id="ProcessOnG1118"><path id="ProcessOnPath1119" d="M419.92741935483866 922.0L419.92741935483866 938.0L419.92741935483866 938.0L419.92741935483866 938.7639320225002" stroke="#323232" stroke-width="2.0" stroke-dasharray="none" fill="none" marker-end="url(#ProcessOnMarker1120)"/></g></g></g></svg>